<?xml version="1.0" ?><svg viewBox="0 0 64 64" xmlns="http://www.w3.org/2000/svg"><defs><style>.cls-1{fill:#eaeaea;}.cls-2{fill:#4c241d;}.cls-3{fill:none;}.cls-3,.cls-4{stroke:#4c241d;stroke-linecap:round;stroke-linejoin:round;stroke-width:2px;}.cls-4{fill:#ffce56;}</style></defs><g id="leaf"><circle class="cls-1" cx="37" cy="28" r="23"/><circle class="cls-2" cx="50" cy="12" r="1"/><line class="cls-3" x1="42" x2="45" y1="5" y2="8"/><line class="cls-3" x1="45" x2="42" y1="5" y2="8"/><path class="cls-4" d="M31,48.985c5.8823,5.9977,16.1765,3.4987,16.1765,3.4987-12.7451-8.9967,6.8627-9.9963,6.8627-9.9963-9.8039-4.9981.98-6.9974.98-6.9974-2.9412-4.9981.98-7.997.98-7.997a5.4008,5.4008,0,0,1-6.3726-3.4986s-11.7647,6.9973-5.8823-4.9982c0,0-5.8824,1.9993-5.8824-3.9985,0,0-6.8627,0-6.8627-5.9977,0,6-6.8627,6-6.8627,6,0,6-5.8824,4-5.8824,4,5.8824,12-5.8824,5-5.8824,5A5.4008,5.4008,0,0,1,6,27.5s3.9216,3,.98,8c0,0,10.7843,2,.98,7,0,0,19.6078,1,6.8627,10,0,0,10.2941,2.5,16.1765-3.5"/><line class="cls-3" x1="31" x2="31" y1="18" y2="61"/><polyline class="cls-3" points="25 24 31 27.813 37 24"/><line class="cls-3" x1="31" x2="24" y1="43" y2="46"/><polyline class="cls-3" points="49 31 31 39 13 31"/><line class="cls-3" x1="31" x2="38" y1="43" y2="46"/><polyline class="cls-3" points="23 31 24 36 18 39"/><polyline class="cls-3" points="39 31 38 36 44 39"/><circle class="cls-3" cx="12" cy="12" r="2"/></g></svg>